<?xml version="1.0" encoding="utf-8"?>
<!-- Generator: Adobe Illustrator 16.0.0, SVG Export Plug-In . SVG Version: 6.00 Build 0)  -->
<!DOCTYPE svg PUBLIC "-//W3C//DTD SVG 1.1//EN" "http://www.w3.org/Graphics/SVG/1.1/DTD/svg11.dtd">
<svg version="1.1" id="Layer_1" xmlns="http://www.w3.org/2000/svg" xmlns:xlink="http://www.w3.org/1999/xlink" x="0px" y="0px"
	 width="334.892px" height="341.108px" viewBox="0 0 334.892 341.108" enable-background="new 0 0 334.892 341.108"
	 xml:space="preserve">
<path fill="#8DC63F" d="M151.818,103.134l-78.101,78.102H53.894l8.024,17.286l4.655-4.655l55.854,55.856
	c-1.813-2.843-3.324-5.824-4.53-8.938c-7.538-18.305-4.13-40.019,10.047-55.271l53.839-53.844l0.544-0.538
	c6.819-8.251,6.28-20.28-1.259-27.818C172.993,95.239,159.894,95.061,151.818,103.134z"/>
<path fill="#58595B" d="M262.717,135.43l-3.166,3.158l-49.343-49.344c1.847,2.871,3.376,5.889,4.599,9.039
	c2.332,5.93,3.591,12.209,3.583,18.67c0.184,13.1-4.486,26.381-13.992,36.613l-0.54,0.538c-0.183,0.181-0.355,0.359-0.536,0.534
	l-53.124,53.125c-6.64,8.077-6.103,20.099,1.431,27.638l14.542,14.537l92.746-92.098h19.884L262.717,135.43z"/>
<path fill="#58595B" d="M194.702,73.738l-28.348-28.353l-28.345,28.344C155.226,62.578,177.49,62.578,194.702,73.738z"/>
<g>
	<polygon points="278.804,181.238 166.354,293.69 53.894,181.235 16.319,181.235 166.354,331.269 316.382,181.238 	"/>
	<polygon points="53.9,157.837 166.354,45.385 278.804,157.84 316.382,157.84 166.354,7.808 16.321,157.837 	"/>
</g>
</svg>
